<mxfile host="app.diagrams.net" modified="2020-10-04T08:54:45.189Z" agent="5.0 (Windows NT 10.0; Win64; x64) AppleWebKit/537.36 (KHTML, like Gecko) Chrome/85.0.4183.121 Safari/537.36" etag="2UgEWLtbgmKJOFY1Ivw-" version="13.7.7" type="github">
  <diagram id="C5RBs43oDa-KdzZeNtuy" name="Page-1">
    <mxGraphModel dx="1422" dy="794" grid="1" gridSize="10" guides="1" tooltips="1" connect="1" arrows="1" fold="1" page="1" pageScale="1" pageWidth="827" pageHeight="1169" math="0" shadow="0">
      <root>
        <mxCell id="WIyWlLk6GJQsqaUBKTNV-0" />
        <mxCell id="WIyWlLk6GJQsqaUBKTNV-1" parent="WIyWlLk6GJQsqaUBKTNV-0" />
        <mxCell id="xiL5FPPy8y4QyC2sQlq6-12" value="" style="rounded=0;html=1;jettySize=auto;orthogonalLoop=1;fontSize=11;endArrow=block;endFill=0;endSize=8;strokeWidth=1;shadow=0;labelBackgroundColor=none;edgeStyle=orthogonalEdgeStyle;entryX=0.5;entryY=0;entryDx=0;entryDy=0;" edge="1" parent="WIyWlLk6GJQsqaUBKTNV-1" source="xiL5FPPy8y4QyC2sQlq6-13" target="xiL5FPPy8y4QyC2sQlq6-15">
          <mxGeometry relative="1" as="geometry">
            <mxPoint x="395" y="160" as="targetPoint" />
          </mxGeometry>
        </mxCell>
        <mxCell id="xiL5FPPy8y4QyC2sQlq6-13" value="Collect Data with Twitter API" style="rounded=1;whiteSpace=wrap;html=1;fontSize=12;glass=0;strokeWidth=1;shadow=0;" vertex="1" parent="WIyWlLk6GJQsqaUBKTNV-1">
          <mxGeometry x="340" y="80" width="120" height="40" as="geometry" />
        </mxCell>
        <mxCell id="xiL5FPPy8y4QyC2sQlq6-14" value="Text-Mining:&lt;br&gt;Sentiment Analysis" style="rounded=1;whiteSpace=wrap;html=1;fontSize=12;glass=0;strokeWidth=1;shadow=0;" vertex="1" parent="WIyWlLk6GJQsqaUBKTNV-1">
          <mxGeometry x="450" y="280" width="130" height="40" as="geometry" />
        </mxCell>
        <mxCell id="xiL5FPPy8y4QyC2sQlq6-15" value="Process Data by Coalition Classification" style="rounded=1;whiteSpace=wrap;html=1;fontSize=12;glass=0;strokeWidth=1;shadow=0;" vertex="1" parent="WIyWlLk6GJQsqaUBKTNV-1">
          <mxGeometry x="335" y="160" width="130" height="40" as="geometry" />
        </mxCell>
        <mxCell id="xiL5FPPy8y4QyC2sQlq6-16" value="Hashtag&lt;br&gt;Keywords" style="rounded=1;whiteSpace=wrap;html=1;fontSize=12;glass=0;strokeWidth=1;shadow=0;" vertex="1" parent="WIyWlLk6GJQsqaUBKTNV-1">
          <mxGeometry x="220" y="280" width="130" height="40" as="geometry" />
        </mxCell>
        <mxCell id="xiL5FPPy8y4QyC2sQlq6-18" value="Cleaned &amp;amp; Classified Twitter Dataset for analysis" style="rounded=1;whiteSpace=wrap;html=1;fontSize=12;glass=0;strokeWidth=1;shadow=0;align=center;" vertex="1" parent="WIyWlLk6GJQsqaUBKTNV-1">
          <mxGeometry x="335" y="400" width="130" height="40" as="geometry" />
        </mxCell>
        <mxCell id="xiL5FPPy8y4QyC2sQlq6-19" value="Visualize characteristics of 2 coalition" style="rounded=1;whiteSpace=wrap;html=1;fontSize=12;glass=0;strokeWidth=1;shadow=0;" vertex="1" parent="WIyWlLk6GJQsqaUBKTNV-1">
          <mxGeometry x="220" y="520" width="130" height="60" as="geometry" />
        </mxCell>
        <mxCell id="xiL5FPPy8y4QyC2sQlq6-20" value="Logistic Model of Coalition by user location&amp;amp; account influence" style="rounded=1;whiteSpace=wrap;html=1;fontSize=12;glass=0;strokeWidth=1;shadow=0;" vertex="1" parent="WIyWlLk6GJQsqaUBKTNV-1">
          <mxGeometry x="450" y="520" width="130" height="60" as="geometry" />
        </mxCell>
        <mxCell id="xiL5FPPy8y4QyC2sQlq6-41" value="" style="rounded=0;html=1;jettySize=auto;orthogonalLoop=1;fontSize=11;endArrow=block;endFill=0;endSize=8;strokeWidth=1;shadow=0;labelBackgroundColor=none;edgeStyle=orthogonalEdgeStyle;entryX=0.5;entryY=0;entryDx=0;entryDy=0;exitX=0.5;exitY=1;exitDx=0;exitDy=0;" edge="1" parent="WIyWlLk6GJQsqaUBKTNV-1" source="xiL5FPPy8y4QyC2sQlq6-16" target="xiL5FPPy8y4QyC2sQlq6-18">
          <mxGeometry relative="1" as="geometry">
            <mxPoint x="294.5" y="360" as="targetPoint" />
            <mxPoint x="294.5" y="330" as="sourcePoint" />
          </mxGeometry>
        </mxCell>
        <mxCell id="xiL5FPPy8y4QyC2sQlq6-42" value="" style="rounded=0;html=1;jettySize=auto;orthogonalLoop=1;fontSize=11;endArrow=block;endFill=0;endSize=8;strokeWidth=1;shadow=0;labelBackgroundColor=none;edgeStyle=orthogonalEdgeStyle;entryX=0.5;entryY=0;entryDx=0;entryDy=0;exitX=0.5;exitY=1;exitDx=0;exitDy=0;" edge="1" parent="WIyWlLk6GJQsqaUBKTNV-1" source="xiL5FPPy8y4QyC2sQlq6-14" target="xiL5FPPy8y4QyC2sQlq6-18">
          <mxGeometry relative="1" as="geometry">
            <mxPoint x="500" y="360" as="targetPoint" />
            <mxPoint x="500" y="330" as="sourcePoint" />
          </mxGeometry>
        </mxCell>
        <mxCell id="xiL5FPPy8y4QyC2sQlq6-44" value="" style="rounded=0;html=1;jettySize=auto;orthogonalLoop=1;fontSize=11;endArrow=block;endFill=0;endSize=8;strokeWidth=1;shadow=0;labelBackgroundColor=none;edgeStyle=orthogonalEdgeStyle;entryX=0.5;entryY=0;entryDx=0;entryDy=0;exitX=0.5;exitY=1;exitDx=0;exitDy=0;" edge="1" parent="WIyWlLk6GJQsqaUBKTNV-1" source="xiL5FPPy8y4QyC2sQlq6-15" target="xiL5FPPy8y4QyC2sQlq6-16">
          <mxGeometry relative="1" as="geometry">
            <mxPoint x="294.5" y="270" as="targetPoint" />
            <mxPoint x="294.5" y="230" as="sourcePoint" />
          </mxGeometry>
        </mxCell>
        <mxCell id="xiL5FPPy8y4QyC2sQlq6-45" value="" style="rounded=0;html=1;jettySize=auto;orthogonalLoop=1;fontSize=11;endArrow=block;endFill=0;endSize=8;strokeWidth=1;shadow=0;labelBackgroundColor=none;edgeStyle=orthogonalEdgeStyle;entryX=0.5;entryY=0;entryDx=0;entryDy=0;exitX=0.5;exitY=1;exitDx=0;exitDy=0;" edge="1" parent="WIyWlLk6GJQsqaUBKTNV-1" source="xiL5FPPy8y4QyC2sQlq6-15" target="xiL5FPPy8y4QyC2sQlq6-14">
          <mxGeometry relative="1" as="geometry">
            <mxPoint x="504.5" y="270" as="targetPoint" />
            <mxPoint x="504.5" y="230" as="sourcePoint" />
          </mxGeometry>
        </mxCell>
        <mxCell id="xiL5FPPy8y4QyC2sQlq6-46" value="" style="rounded=0;html=1;jettySize=auto;orthogonalLoop=1;fontSize=11;endArrow=block;endFill=0;endSize=8;strokeWidth=1;shadow=0;labelBackgroundColor=none;edgeStyle=orthogonalEdgeStyle;entryX=0.5;entryY=0;entryDx=0;entryDy=0;exitX=0.5;exitY=1;exitDx=0;exitDy=0;" edge="1" parent="WIyWlLk6GJQsqaUBKTNV-1" source="xiL5FPPy8y4QyC2sQlq6-18" target="xiL5FPPy8y4QyC2sQlq6-19">
          <mxGeometry relative="1" as="geometry">
            <mxPoint x="294.5" y="525" as="targetPoint" />
            <mxPoint x="294.5" y="485" as="sourcePoint" />
            <Array as="points">
              <mxPoint x="400" y="480" />
              <mxPoint x="285" y="480" />
            </Array>
          </mxGeometry>
        </mxCell>
        <mxCell id="xiL5FPPy8y4QyC2sQlq6-47" value="" style="rounded=0;html=1;jettySize=auto;orthogonalLoop=1;fontSize=11;endArrow=block;endFill=0;endSize=8;strokeWidth=1;shadow=0;labelBackgroundColor=none;edgeStyle=orthogonalEdgeStyle;entryX=0.5;entryY=0;entryDx=0;entryDy=0;exitX=0.5;exitY=1;exitDx=0;exitDy=0;" edge="1" parent="WIyWlLk6GJQsqaUBKTNV-1" source="xiL5FPPy8y4QyC2sQlq6-18" target="xiL5FPPy8y4QyC2sQlq6-20">
          <mxGeometry relative="1" as="geometry">
            <mxPoint x="514.5" y="520" as="targetPoint" />
            <mxPoint x="514.5" y="480" as="sourcePoint" />
            <Array as="points">
              <mxPoint x="400" y="480" />
              <mxPoint x="515" y="480" />
            </Array>
          </mxGeometry>
        </mxCell>
      </root>
    </mxGraphModel>
  </diagram>
</mxfile>
